<?xml version="1.0" standalone="no"?>
<!DOCTYPE svg PUBLIC "-//W3C//DTD SVG 20010904//EN"
 "http://www.w3.org/TR/2001/REC-SVG-20010904/DTD/svg10.dtd">
<svg version="1.0" xmlns="http://www.w3.org/2000/svg"
 width="800.000000pt" height="600.000000pt" viewBox="0 0 800.000000 600.000000"
 preserveAspectRatio="xMidYMid meet">

<g transform="translate(0.000000,600.000000) scale(0.100000,-0.100000)"
fill="#000000" stroke="none">
<path d="M3503 4581 c-48 -30 -64 -72 -76 -193 l-11 -108 -43 0 c-67 0 -259
-29 -323 -49 -81 -26 -141 -62 -189 -117 -52 -59 -64 -103 -65 -239 -1 -151
19 -202 123 -306 137 -138 236 -186 429 -210 l100 -13 4 -120 c2 -67 1 -161
-1 -210 l-3 -89 -132 6 c-72 3 -179 14 -237 23 -123 20 -166 15 -213 -26 -45
-40 -60 -79 -54 -141 7 -65 31 -98 98 -131 61 -31 191 -48 355 -48 51 0 106
-3 123 -6 l30 -6 3 -157 c4 -174 14 -205 78 -248 73 -49 166 -34 219 35 27 36
27 36 27 202 l-1 167 166 7 c183 7 290 23 364 55 132 58 290 198 314 279 32
106 23 306 -17 397 -27 61 -124 160 -184 189 -113 53 -351 105 -529 115 -70 4
-131 10 -134 14 -8 8 -28 387 -21 394 9 9 255 -18 394 -43 117 -21 148 -23
182 -14 100 27 110 170 16 214 -53 25 -174 45 -400 64 l-200 17 -5 115 c-7
152 -24 181 -116 195 -29 4 -47 1 -71 -14z m-81 -738 c3 -98 4 -180 2 -182 -2
-3 -32 1 -66 7 -62 12 -185 64 -239 103 -58 41 -88 139 -51 171 34 31 213 75
308 77 l41 1 5 -177z m683 -532 c158 -30 153 -27 175 -71 40 -78 20 -179 -47
-242 -53 -51 -116 -70 -258 -79 -71 -5 -148 -6 -171 -3 l-41 6 -6 191 c-3 106
-9 201 -13 211 -7 18 -3 19 122 13 71 -3 179 -15 239 -26z"/>
<path d="M5319 3991 c-31 -30 -39 -46 -39 -74 0 -80 6 -87 260 -291 181 -145
280 -233 280 -247 0 -5 -6 -9 -13 -9 -31 0 -378 -210 -433 -262 -68 -64 -67
-162 1 -228 33 -32 41 -35 99 -35 58 0 67 3 117 42 30 22 137 87 239 144 201
111 303 175 350 219 23 22 30 37 30 67 0 59 -49 150 -116 215 -75 71 -595 464
-642 483 -59 25 -90 19 -133 -24z"/>
<path d="M814 3516 c-123 -28 -179 -70 -228 -171 -76 -155 -80 -201 -23 -236
65 -39 123 -13 151 67 30 90 92 144 164 144 48 0 127 -47 178 -106 103 -122
306 -258 443 -298 68 -20 146 -20 200 -1 53 18 176 113 207 158 28 42 60 136
72 208 18 122 -24 189 -119 189 -45 0 -55 -4 -85 -34 -34 -34 -35 -36 -32
-108 2 -58 -1 -80 -15 -102 -28 -42 -104 -86 -150 -86 -48 0 -141 47 -206 105
-25 23 -72 58 -104 79 -32 20 -90 66 -128 102 -38 36 -84 71 -102 79 -51 21
-155 26 -223 11z"/>
</g>
</svg>
